# xmcd
#
# Track frame offsets: 
#        182
#        19877
#        42457
#        57495
#        76787
#        95295
#        108560
#        119752
#        131825
#        146067
#        155467
#        173962
#        189907
#        223397
#        233915
#        248790
#        274140
#        285612
#
# Disc length: 4194 seconds
#
# Revision: 2
# Processed by: cddbd v1.5.2PL0 Copyright (c) Steve Scherf et al.
# Submitted via: ExactAudioCopyFreeDBPlugin 1.0
#
DISCID=13106012
DTITLE=George Benson - Out Of The Blue
DYEAR=1988
DGENRE=Jazz
TTITLE0=Footin' It
TTITLE1=I Got A Woman
TTITLE2=Out Of The Blue
TTITLE3=Bluesadelic
TTITLE4=Durham's Turn
TTITLE5=Good Morning Blues
TTITLE6=I Worry 'bout You
TTITLE7=Without Her
TTITLE8=She Went A Little Farther
TTITLE9=Good Bye Columbus
TTITLE10=Face It Boy, It's Over
TTITLE11=My Cherie Amour
TTITLE12=Because - Come Together
TTITLE13=Jackie All
TTITLE14=Don'tcha Hear Me Callin' To Ya
TTITLE15=Last Train To Clarksville
TTITLE16=Here Comes The Sun
TTITLE17=I Want You
EXTD=
EXTT0=
EXTT1=
EXTT2=
EXTT3=
EXTT4=
EXTT5=
EXTT6=
EXTT7=
EXTT8=
EXTT9=
EXTT10=
EXTT11=
EXTT12=
EXTT13=
EXTT14=
EXTT15=
EXTT16=
EXTT17=
PLAYORDER=
